<?xml version="1.0" encoding="UTF-8" standalone="no"?><!-- Generator: Gravit.io --><svg xmlns="http://www.w3.org/2000/svg" xmlns:xlink="http://www.w3.org/1999/xlink" style="isolation:isolate" viewBox="0 0 192 192" width="192pt" height="192pt"><defs><clipPath id="_clipPath_GMLgAYyOT6HRnJ21PSif5YGCMLu9QCpu"><rect width="192" height="192"/></clipPath></defs><g clip-path="url(#_clipPath_GMLgAYyOT6HRnJ21PSif5YGCMLu9QCpu)"><g><path d=" M 70.797 144.675 L 45.798 111.535 L 38.227 119.963 L 38.227 144.675 L 5.087 144.675 L 5.087 51.825 C 5.087 47.883 8.287 44.682 12.229 44.682 L 31.085 44.682 C 35.027 44.682 38.227 47.883 38.227 51.825 L 38.227 80.965 L 66.288 49.977 C 68.934 47.055 74.283 44.682 78.225 44.682 L 100.651 44.682 C 104.593 44.682 105.641 47.05 102.989 49.967 L 67.796 88.679 L 109.793 144.675 L 70.797 144.675 L 70.797 144.675 L 70.797 144.675 L 70.797 144.675 L 70.797 144.675 L 70.797 144.675 Z " fill="rgb(109,76,65)"/><path d=" M 161.772 67.752 L 179.771 67.752 C 183.713 67.752 186.913 70.953 186.913 74.895 L 186.913 145.889 L 156.201 145.889 L 156.201 138.461 L 156.201 138.461 Q 151.916 142.89 146.202 145.104 L 146.202 145.104 L 146.202 145.104 Q 140.488 147.318 134.06 147.318 L 134.06 147.318 L 134.06 147.318 Q 119.204 147.318 110.204 138.247 L 110.204 138.247 L 110.204 138.247 Q 101.205 129.176 101.205 110.892 L 101.205 110.892 L 101.205 74.895 C 101.205 70.953 104.405 67.752 108.347 67.752 L 126.346 67.752 C 130.288 67.752 133.489 70.953 133.489 74.895 L 133.489 105.321 L 133.489 105.321 Q 133.489 113.32 136.06 116.749 L 136.06 116.749 L 136.06 116.749 Q 138.631 120.177 143.63 120.177 L 143.63 120.177 L 143.63 120.177 Q 148.345 120.177 151.487 116.391 L 151.487 116.391 L 151.487 116.391 Q 154.63 112.606 154.63 104.464 L 154.63 104.464 L 154.63 74.895 C 154.63 70.953 157.83 67.752 161.772 67.752 Z " fill="rgb(109,76,65)"/></g></g></svg>