<?xml version="1.0" encoding="UTF-8" standalone="no"?><!-- Generator: Gravit.io --><svg xmlns="http://www.w3.org/2000/svg" xmlns:xlink="http://www.w3.org/1999/xlink" style="isolation:isolate" viewBox="0 0 315 135" width="315pt" height="135pt"><defs><clipPath id="_clipPath_NGXNtYQ3Ypnx2mvhTnyqkIgu0fgkpKBo"><rect width="315" height="135"/></clipPath></defs><g clip-path="url(#_clipPath_NGXNtYQ3Ypnx2mvhTnyqkIgu0fgkpKBo)"><path d=" M 38.944 40.916 L 37.202 40.916 L 37.202 40.916 Q 38.676 43.372 38.676 45.606 L 38.676 45.606 L 38.676 45.606 Q 38.676 48.107 37.515 49.938 L 37.515 49.938 L 56.052 49.938 L 56.052 56.326 L 47.163 56.192 L 47.163 56.192 Q 50.424 58.157 52.188 61.329 L 52.188 61.329 L 52.188 61.329 Q 53.953 64.5 53.953 68.341 L 53.953 68.341 L 53.953 68.341 Q 53.953 76.337 48.369 80.848 L 48.369 80.848 L 48.369 80.848 Q 42.786 85.36 32.646 85.36 L 32.646 85.36 L 32.646 85.36 Q 23.087 85.36 17.549 80.781 L 17.549 80.781 L 17.549 80.781 Q 12.01 76.203 12.01 68.52 L 12.01 68.52 L 12.01 68.52 Q 12.01 60.748 18.531 56.237 L 18.531 56.237 L 10 56.326 L 10 49.938 L 29.073 49.938 L 29.073 49.938 Q 31.44 48.196 31.44 45.516 L 31.44 45.516 L 31.44 45.516 Q 31.44 43.194 29.922 40.916 L 29.922 40.916 L 10 40.916 L 10 33.814 L 37.292 33.814 L 37.292 33.814 Q 42.026 33.814 44.438 33.322 L 44.438 33.322 L 44.438 33.322 Q 46.85 32.831 48.034 31.424 L 48.034 31.424 L 48.034 31.424 Q 49.218 30.017 49.218 27.65 L 49.218 27.65 L 49.218 27.65 Q 49.218 21.798 43.277 15.991 L 43.277 15.991 L 49.218 12.016 L 49.218 12.016 Q 52.97 16.215 54.801 20.011 L 54.801 20.011 L 54.801 20.011 Q 56.633 23.808 56.633 28.275 L 56.633 28.275 L 56.633 28.275 Q 56.633 31.625 55.002 34.506 L 55.002 34.506 L 55.002 34.506 Q 53.372 37.387 49.798 39.151 L 49.798 39.151 L 49.798 39.151 Q 46.225 40.916 38.944 40.916 L 38.944 40.916 Z  M 32.959 56.326 L 32.959 56.326 L 32.959 56.326 Q 26.393 56.326 22.886 59.319 L 22.886 59.319 L 22.886 59.319 Q 19.38 62.311 19.38 67.493 L 19.38 67.493 L 19.38 67.493 Q 19.38 72.54 22.864 75.376 L 22.864 75.376 L 22.864 75.376 Q 26.348 78.213 32.959 78.213 L 32.959 78.213 L 32.959 78.213 Q 39.57 78.213 43.076 75.376 L 43.076 75.376 L 43.076 75.376 Q 46.582 72.54 46.582 67.493 L 46.582 67.493 L 46.582 67.493 Q 46.582 62.222 43.054 59.274 L 43.054 59.274 L 43.054 59.274 Q 39.525 56.326 32.959 56.326 Z  M 30.994 10.319 M 46.154 73.076 L 46.154 73.076 L 50.844 68.073 L 50.844 68.073 Q 55.042 73.389 59.062 75.756 L 59.062 75.756 L 59.062 75.756 Q 63.082 78.123 67.951 78.123 L 67.951 78.123 L 67.951 78.123 Q 73.356 78.123 76.416 74.595 L 76.416 74.595 L 76.416 74.595 Q 79.475 71.066 79.475 65.036 L 79.475 65.036 L 79.475 65.036 Q 79.475 56.326 74.986 49.983 L 74.986 49.983 L 74.986 49.983 Q 70.497 43.64 61.519 39.665 L 61.519 39.665 L 65.45 32.563 L 65.45 32.563 Q 75.947 37.789 81.463 46.052 L 81.463 46.052 L 81.463 46.052 Q 86.979 54.316 86.979 64.634 L 86.979 64.634 L 86.979 64.634 Q 86.979 74.237 81.865 79.798 L 81.865 79.798 L 81.865 79.798 Q 76.751 85.36 67.639 85.36 L 67.639 85.36 L 67.639 85.36 Q 61.698 85.36 56.472 82.434 L 56.472 82.434 L 56.472 82.434 Q 51.246 79.508 46.154 73.076 Z  M 157.902 25.729 L 157.902 25.729 L 157.902 25.729 Q 157.902 32.072 154.373 35.891 L 154.373 35.891 L 154.373 35.891 Q 150.845 39.71 143.832 40.558 L 143.832 40.558 L 143.832 40.558 Q 150.711 45.204 154.306 51.792 L 154.306 51.792 L 154.306 51.792 Q 157.902 58.381 157.902 66.197 L 157.902 66.197 L 157.902 66.197 Q 157.902 75.175 153.413 80.267 L 153.413 80.267 L 153.413 80.267 Q 148.924 85.36 141.866 85.36 L 141.866 85.36 L 141.866 85.36 Q 136.551 85.36 133.112 83.662 L 133.112 83.662 L 133.112 83.662 Q 129.672 81.965 126.59 77.141 L 126.59 77.141 L 126.59 77.141 Q 123.91 81.25 120.181 83.305 L 120.181 83.305 L 120.181 83.305 Q 116.451 85.36 109.706 85.36 L 109.706 85.36 L 109.706 85.36 Q 101.845 85.36 96.864 80.848 L 96.864 80.848 L 96.864 80.848 Q 91.884 76.337 91.884 69.056 L 91.884 69.056 L 91.884 69.056 Q 91.884 62.713 95.725 58.671 L 95.725 58.671 L 95.725 58.671 Q 99.567 54.629 105.775 54.629 L 105.775 54.629 L 105.775 54.629 Q 110.644 54.629 113.592 56.951 L 113.592 56.951 L 113.592 56.951 Q 116.54 59.274 116.54 63.16 L 116.54 63.16 L 116.54 63.16 Q 116.54 66.555 115.334 68.565 L 115.334 68.565 L 109.081 67.984 L 109.081 67.984 Q 109.661 66.331 109.661 65.036 L 109.661 65.036 L 109.661 65.036 Q 109.661 63.071 108.545 62.066 L 108.545 62.066 L 108.545 62.066 Q 107.428 61.061 105.507 61.061 L 105.507 61.061 L 105.507 61.061 Q 102.425 61.061 100.639 63.138 L 100.639 63.138 L 100.639 63.138 Q 98.852 65.215 98.852 68.699 L 98.852 68.699 L 98.852 68.699 Q 98.852 73.076 101.867 75.6 L 101.867 75.6 L 101.867 75.6 Q 104.882 78.123 110.51 78.123 L 110.51 78.123 L 110.51 78.123 Q 122.034 78.123 123.062 66.465 L 123.062 66.465 L 130.074 66.465 L 130.074 66.465 Q 130.476 72.049 133.424 75.086 L 133.424 75.086 L 133.424 75.086 Q 136.372 78.123 141.196 78.123 L 141.196 78.123 L 141.196 78.123 Q 145.663 78.123 148.031 75.153 L 148.031 75.153 L 148.031 75.153 Q 150.398 72.183 150.398 66.778 L 150.398 66.778 L 150.398 66.778 Q 150.398 57.621 144.658 50.229 L 144.658 50.229 L 144.658 50.229 Q 138.918 42.836 130.387 40.916 L 130.387 40.916 L 91.884 40.916 L 91.884 33.814 L 135.39 33.814 L 135.39 33.814 Q 142.224 33.814 144.971 32.965 L 144.971 32.965 L 144.971 32.965 Q 147.718 32.116 149.103 30.173 L 149.103 30.173 L 149.103 30.173 Q 150.487 28.23 150.487 24.657 L 150.487 24.657 L 150.487 24.657 Q 150.487 21.039 148.142 18.828 L 148.142 18.828 L 148.142 18.828 Q 145.797 16.617 142.045 16.617 L 142.045 16.617 L 142.045 16.617 Q 139.454 16.617 137.377 17.733 L 137.377 17.733 L 137.377 17.733 Q 135.3 18.85 134.228 20.86 L 134.228 20.86 L 134.228 20.86 Q 136.417 20.86 137.735 21.932 L 137.735 21.932 L 137.735 21.932 Q 139.052 23.004 139.052 24.791 L 139.052 24.791 L 139.052 24.791 Q 139.052 26.89 137.712 28.052 L 137.712 28.052 L 137.712 28.052 Q 136.372 29.213 134.005 29.213 L 134.005 29.213 L 134.005 29.213 Q 131.012 29.213 129.404 27.203 L 129.404 27.203 L 129.404 27.203 Q 127.796 25.193 127.796 21.977 L 127.796 21.977 L 127.796 21.977 Q 127.796 17.287 131.861 13.803 L 131.861 13.803 L 131.861 13.803 Q 135.926 10.319 142.447 10.319 L 142.447 10.319 L 142.447 10.319 Q 149.46 10.319 153.681 14.562 L 153.681 14.562 L 153.681 14.562 Q 157.902 18.805 157.902 25.729 Z  M 187.49 38.504 L 187.49 38.504 L 187.49 38.504 Q 197.852 38.504 203.547 44.779 L 203.547 44.779 L 203.547 44.779 Q 209.242 51.055 209.242 61.999 L 209.242 61.999 L 209.242 61.999 Q 209.242 72.585 203.257 78.972 L 203.257 78.972 L 203.257 78.972 Q 197.272 85.36 187.088 85.36 L 187.088 85.36 L 187.088 85.36 Q 177.171 85.36 171.387 79.151 L 171.387 79.151 L 171.387 79.151 Q 165.603 72.942 165.603 62.043 L 165.603 62.043 L 165.603 62.043 Q 165.603 51.368 171.521 44.936 L 171.521 44.936 L 171.521 44.936 Q 177.439 38.504 187.49 38.504 Z  M 187.222 78.481 L 187.222 78.481 L 187.222 78.481 Q 194.19 78.481 197.986 74.126 L 197.986 74.126 L 197.986 74.126 Q 201.783 69.771 201.783 62.043 L 201.783 62.043 L 201.783 62.043 Q 201.783 54.316 198.009 49.827 L 198.009 49.827 L 198.009 49.827 Q 194.234 45.338 187.624 45.338 L 187.624 45.338 L 187.624 45.338 Q 180.611 45.338 176.836 49.693 L 176.836 49.693 L 176.836 49.693 Q 173.062 54.048 173.062 61.82 L 173.062 61.82 L 173.062 61.82 Q 173.062 69.547 176.836 74.014 L 176.836 74.014 L 176.836 74.014 Q 180.611 78.481 187.222 78.481 Z  M 187.088 33.814 M 263.71 40.916 L 215.38 40.916 L 215.38 33.814 L 262.057 33.814 L 262.057 33.814 Q 266.792 33.814 269.204 33.322 L 269.204 33.322 L 269.204 33.322 Q 271.616 32.831 272.799 31.424 L 272.799 31.424 L 272.799 31.424 Q 273.983 30.017 273.983 27.65 L 273.983 27.65 L 273.983 27.65 Q 273.983 21.798 268.042 15.991 L 268.042 15.991 L 273.983 12.016 L 273.983 12.016 Q 277.735 16.215 279.567 20.011 L 279.567 20.011 L 279.567 20.011 Q 281.398 23.808 281.398 28.275 L 281.398 28.275 L 281.398 28.275 Q 281.398 31.625 279.768 34.506 L 279.768 34.506 L 279.768 34.506 Q 278.137 37.387 274.564 39.151 L 274.564 39.151 L 274.564 39.151 Q 270.99 40.916 263.71 40.916 L 263.71 40.916 Z  M 266.211 48.866 L 272.643 44.534 L 272.643 44.534 Q 281.398 54.137 281.398 66.153 L 281.398 66.153 L 281.398 66.153 Q 281.398 75.175 276.909 80.267 L 276.909 80.267 L 276.909 80.267 Q 272.42 85.36 265.362 85.36 L 265.362 85.36 L 265.362 85.36 Q 260.047 85.36 256.608 83.662 L 256.608 83.662 L 256.608 83.662 Q 253.168 81.965 250.086 77.141 L 250.086 77.141 L 250.086 77.141 Q 247.406 81.25 243.676 83.305 L 243.676 83.305 L 243.676 83.305 Q 239.947 85.36 233.202 85.36 L 233.202 85.36 L 233.202 85.36 Q 225.341 85.36 220.36 80.848 L 220.36 80.848 L 220.36 80.848 Q 215.38 76.337 215.38 69.056 L 215.38 69.056 L 215.38 69.056 Q 215.38 62.713 219.221 58.671 L 219.221 58.671 L 219.221 58.671 Q 223.063 54.629 229.271 54.629 L 229.271 54.629 L 229.271 54.629 Q 234.14 54.629 237.088 56.951 L 237.088 56.951 L 237.088 56.951 Q 240.036 59.274 240.036 63.16 L 240.036 63.16 L 240.036 63.16 Q 240.036 66.555 238.83 68.565 L 238.83 68.565 L 232.577 67.984 L 232.577 67.984 Q 233.157 66.421 233.157 65.036 L 233.157 65.036 L 233.157 65.036 Q 233.157 63.071 232.041 62.066 L 232.041 62.066 L 232.041 62.066 Q 230.924 61.061 229.003 61.061 L 229.003 61.061 L 229.003 61.061 Q 225.921 61.061 224.135 63.138 L 224.135 63.138 L 224.135 63.138 Q 222.348 65.215 222.348 68.699 L 222.348 68.699 L 222.348 68.699 Q 222.348 73.076 225.363 75.6 L 225.363 75.6 L 225.363 75.6 Q 228.378 78.123 234.006 78.123 L 234.006 78.123 L 234.006 78.123 Q 245.53 78.123 246.557 66.465 L 246.557 66.465 L 253.57 66.465 L 253.57 66.465 Q 253.972 72.049 256.92 75.086 L 256.92 75.086 L 256.92 75.086 Q 259.868 78.123 264.692 78.123 L 264.692 78.123 L 264.692 78.123 Q 269.159 78.123 271.526 75.198 L 271.526 75.198 L 271.526 75.198 Q 273.894 72.272 273.894 66.778 L 273.894 66.778 L 273.894 66.778 Q 273.894 61.999 271.973 57.644 L 271.973 57.644 L 271.973 57.644 Q 270.052 53.289 266.211 48.866 L 266.211 48.866 Z  M 249.282 46.365 L 249.282 46.365 L 249.282 46.365 Q 251.516 46.365 253.079 47.928 L 253.079 47.928 L 253.079 47.928 Q 254.642 49.492 254.642 51.77 L 254.642 51.77 L 254.642 51.77 Q 254.642 54.003 253.057 55.567 L 253.057 55.567 L 253.057 55.567 Q 251.471 57.13 249.282 57.13 L 249.282 57.13 L 249.282 57.13 Q 247.093 57.13 245.552 55.544 L 245.552 55.544 L 245.552 55.544 Q 244.011 53.959 244.011 51.77 L 244.011 51.77 L 244.011 51.77 Q 244.011 49.581 245.508 47.973 L 245.508 47.973 L 245.508 47.973 Q 247.004 46.365 249.282 46.365 Z  M 246.736 10.319 M 253.499 90.362 L 257.474 84.377 L 257.474 84.377 Q 262.79 88.576 267.748 90.63 L 267.748 90.63 L 267.748 90.63 Q 272.706 92.685 278.334 92.685 L 278.334 92.685 L 278.334 92.685 Q 287.669 92.685 292.583 87.593 L 292.583 87.593 L 292.583 87.593 Q 297.496 82.501 297.496 73.031 L 297.496 73.031 L 297.496 73.031 Q 297.496 64.411 294.213 56.929 L 294.213 56.929 L 294.213 56.929 Q 290.93 49.447 283.828 42.077 L 283.828 42.077 L 290.036 37.298 L 290.036 37.298 Q 297.809 45.74 301.404 54.249 L 301.404 54.249 L 301.404 54.249 Q 305 62.758 305 72.719 L 305 72.719 L 305 72.719 Q 305 85.583 298.099 92.618 L 298.099 92.618 L 298.099 92.618 Q 291.198 99.653 278.691 99.653 L 278.691 99.653 L 278.691 99.653 Q 265.648 99.653 253.499 90.362 L 253.499 90.362 Z  M 302.454 117.967 M 304.017 89.335 M 290.215 84.288 M 253.677 91.345 M 283.336 44.4 M 288.562 33.814" fill="rgb(66,66,66)"/><path d=" M 53.675 113.496 L 60.702 124.639 L 55.89 124.639 L 50.653 116.217 L 48.862 117.502 L 48.862 124.639 L 44.624 124.639 L 44.624 104.65 L 48.862 104.65 L 48.862 113.797 L 50.53 111.445 L 55.944 104.65 L 60.647 104.65 L 53.675 113.496 L 53.675 113.496 Z  M 90.263 104.65 L 94.487 104.65 L 94.487 117.584 L 94.487 117.584 Q 94.487 119.799 93.496 121.467 L 93.496 121.467 L 93.496 121.467 Q 92.505 123.135 90.632 124.023 L 90.632 124.023 L 90.632 124.023 Q 88.759 124.912 86.202 124.912 L 86.202 124.912 L 86.202 124.912 Q 82.347 124.912 80.214 122.937 L 80.214 122.937 L 80.214 122.937 Q 78.081 120.961 78.081 117.529 L 78.081 117.529 L 78.081 104.65 L 82.306 104.65 L 82.306 116.887 L 82.306 116.887 Q 82.306 119.197 83.235 120.277 L 83.235 120.277 L 83.235 120.277 Q 84.165 121.357 86.312 121.357 L 86.312 121.357 L 86.312 121.357 Q 88.39 121.357 89.326 120.271 L 89.326 120.271 L 89.326 120.271 Q 90.263 119.184 90.263 116.859 L 90.263 116.859 L 90.263 104.65 L 90.263 104.65 Z  M 121.997 116.545 L 125.784 104.65 L 130.063 104.65 L 123.269 124.639 L 118.647 124.639 L 111.866 104.65 L 116.146 104.65 L 119.905 116.545 L 119.905 116.545 Q 120.22 117.598 120.555 118.999 L 120.555 118.999 L 120.555 118.999 Q 120.89 120.4 120.972 120.947 L 120.972 120.947 L 120.972 120.947 Q 121.122 119.689 121.997 116.545 L 121.997 116.545 L 121.997 116.545 Z  M 159.091 121.139 L 159.091 124.639 L 147.579 124.639 L 147.579 104.65 L 159.091 104.65 L 159.091 108.123 L 151.817 108.123 L 151.817 112.512 L 158.585 112.512 L 158.585 115.984 L 151.817 115.984 L 151.817 121.139 L 159.091 121.139 L 159.091 121.139 Z  M 190.606 124.639 L 186.724 124.639 L 181.911 108.957 L 181.788 108.957 L 181.788 108.957 Q 182.048 113.742 182.048 115.342 L 182.048 115.342 L 182.048 124.639 L 178.261 124.639 L 178.261 104.65 L 184.03 104.65 L 188.761 119.936 L 188.843 119.936 L 193.86 104.65 L 199.63 104.65 L 199.63 124.639 L 195.679 124.639 L 195.679 115.178 L 195.679 115.178 Q 195.679 114.508 195.699 113.633 L 195.699 113.633 L 195.699 113.633 Q 195.72 112.758 195.884 108.984 L 195.884 108.984 L 195.761 108.984 L 190.606 124.639 L 190.606 124.639 Z  M 223.899 108.123 L 223.899 114.057 L 225.294 114.057 L 225.294 114.057 Q 227.249 114.057 228.22 113.284 L 228.22 113.284 L 228.22 113.284 Q 229.19 112.512 229.19 111.035 L 229.19 111.035 L 229.19 111.035 Q 229.19 109.545 228.377 108.834 L 228.377 108.834 L 228.377 108.834 Q 227.563 108.123 225.827 108.123 L 225.827 108.123 L 223.899 108.123 L 223.899 108.123 Z  M 233.47 110.885 L 233.47 110.885 L 233.47 110.885 Q 233.47 114.111 231.453 115.82 L 231.453 115.82 L 231.453 115.82 Q 229.437 117.529 225.718 117.529 L 225.718 117.529 L 223.899 117.529 L 223.899 124.639 L 219.661 124.639 L 219.661 104.65 L 226.046 104.65 L 226.046 104.65 Q 229.683 104.65 231.576 106.216 L 231.576 106.216 L 231.576 106.216 Q 233.47 107.781 233.47 110.885 Z  M 264.288 104.65 L 268.513 104.65 L 268.513 117.584 L 268.513 117.584 Q 268.513 119.799 267.521 121.467 L 267.521 121.467 L 267.521 121.467 Q 266.53 123.135 264.657 124.023 L 264.657 124.023 L 264.657 124.023 Q 262.784 124.912 260.228 124.912 L 260.228 124.912 L 260.228 124.912 Q 256.372 124.912 254.239 122.937 L 254.239 122.937 L 254.239 122.937 Q 252.106 120.961 252.106 117.529 L 252.106 117.529 L 252.106 104.65 L 256.331 104.65 L 256.331 116.887 L 256.331 116.887 Q 256.331 119.197 257.261 120.277 L 257.261 120.277 L 257.261 120.277 Q 258.19 121.357 260.337 121.357 L 260.337 121.357 L 260.337 121.357 Q 262.415 121.357 263.352 120.271 L 263.352 120.271 L 263.352 120.271 Q 264.288 119.184 264.288 116.859 L 264.288 116.859 L 264.288 104.65 L 264.288 104.65 Z " fill="rgb(117,117,117)"/></g></svg>