<?xml version="1.0" encoding="UTF-8" standalone="no"?><!-- Generator: Gravit.io --><svg xmlns="http://www.w3.org/2000/svg" xmlns:xlink="http://www.w3.org/1999/xlink" style="isolation:isolate" viewBox="0 0 160 38" width="160pt" height="38pt"><defs><clipPath id="_clipPath_GGDQ7XQ0DeiwEsMYyoSk54Fn51la0ajT"><rect width="160" height="38"/></clipPath></defs><g clip-path="url(#_clipPath_GGDQ7XQ0DeiwEsMYyoSk54Fn51la0ajT)"><g><path d=" M 19.41 26.792 L 13.928 19.525 L 12.267 21.373 L 12.267 26.792 L 5 26.792 L 5 6.431 C 5 5.566 5.702 4.865 6.566 4.865 L 10.701 4.865 C 11.566 4.865 12.267 5.566 12.267 6.431 L 12.267 12.821 L 18.421 6.026 C 19.001 5.385 20.174 4.865 21.039 4.865 L 25.956 4.865 C 26.821 4.865 27.051 5.384 26.469 6.024 L 18.752 14.513 L 27.961 26.792 L 19.41 26.792 L 19.41 26.792 L 19.41 26.792 L 19.41 26.792 L 19.41 26.792 L 19.41 26.792 Z " fill="rgb(109,76,65)"/><path d=" M 39.36 9.924 L 43.307 9.924 C 44.171 9.924 44.873 10.625 44.873 11.49 L 44.873 27.058 L 38.138 27.058 L 38.138 25.429 L 38.138 25.429 Q 37.198 26.401 35.945 26.886 L 35.945 26.886 L 35.945 26.886 Q 34.692 27.372 33.283 27.372 L 33.283 27.372 L 33.283 27.372 Q 30.025 27.372 28.051 25.383 L 28.051 25.383 L 28.051 25.383 Q 26.078 23.393 26.078 19.384 L 26.078 19.384 L 26.078 11.49 C 26.078 10.625 26.78 9.924 27.644 9.924 L 31.591 9.924 C 32.456 9.924 33.157 10.625 33.157 11.49 L 33.157 18.162 L 33.157 18.162 Q 33.157 19.916 33.721 20.668 L 33.721 20.668 L 33.721 20.668 Q 34.285 21.42 35.381 21.42 L 35.381 21.42 L 35.381 21.42 Q 36.415 21.42 37.104 20.59 L 37.104 20.59 L 37.104 20.59 Q 37.794 19.76 37.793 17.974 L 37.793 17.974 L 37.793 11.49 C 37.793 10.625 38.495 9.924 39.36 9.924 Z " fill="rgb(109,76,65)"/><path d=" M 60.678 9.924 L 60.678 9.924 L 64.828 9.924 C 65.692 9.924 66.132 10.575 65.81 11.377 L 59.503 27.058 L 52.173 27.058 L 45.865 11.377 C 45.543 10.575 45.983 9.924 46.847 9.924 L 50.982 9.924 C 51.847 9.924 52.795 10.581 53.099 11.39 L 55.994 19.102 L 58.491 12.834 C 59.131 11.228 60.111 9.924 60.678 9.924 Z " fill="rgb(109,76,65)"/><path d=" M 107.394 9.61 L 107.394 9.61 Q 110.495 9.61 112.359 11.521 L 112.359 11.521 L 112.359 11.521 Q 114.223 13.432 114.223 17.285 L 114.223 17.285 L 114.223 27.058 L 107.143 27.058 L 107.143 18.507 L 107.143 18.507 Q 107.143 15.562 105.232 15.562 L 105.232 15.562 L 105.232 15.562 Q 104.23 15.562 103.619 16.314 L 103.619 16.314 L 103.619 16.314 Q 103.008 17.066 103.008 18.695 L 103.008 18.695 L 103.008 27.058 L 95.929 27.058 L 95.929 18.507 L 95.929 18.507 Q 95.929 15.562 94.018 15.562 L 94.018 15.562 L 94.018 15.562 Q 93.016 15.562 92.405 16.314 L 92.405 16.314 L 92.405 16.314 Q 91.794 17.066 91.794 18.695 L 91.794 18.695 L 91.794 27.058 L 84.714 27.058 L 84.714 11.49 C 84.714 10.625 85.416 9.924 86.281 9.924 L 89.883 9.924 C 90.748 9.924 91.449 10.625 91.449 11.49 L 91.449 11.521 L 91.449 11.521 Q 93.36 9.61 96.305 9.61 L 96.305 9.61 L 96.305 9.61 Q 98.028 9.61 99.406 10.253 L 99.406 10.253 L 99.406 10.253 Q 100.784 10.895 101.661 12.21 L 101.661 12.21 L 101.661 12.21 Q 102.695 10.957 104.167 10.284 L 104.167 10.284 L 104.167 10.284 Q 105.64 9.61 107.394 9.61 L 107.394 9.61 L 107.394 9.61 L 107.394 9.61 Z " fill="rgb(109,76,65)"/><path d=" M 83.786 18.475 L 83.786 18.475 Q 83.786 18.632 83.692 20.136 L 83.692 20.136 L 71.789 20.136 L 71.789 20.136 Q 72.165 21.107 73.042 21.624 L 73.042 21.624 L 73.042 21.624 Q 73.919 22.14 75.235 22.14 L 75.235 22.14 L 75.235 22.14 Q 76.362 22.14 77.13 21.858 L 77.13 21.858 L 77.13 21.858 Q 77.897 21.576 78.806 20.887 L 78.806 20.887 L 82.502 24.615 L 82.502 24.615 Q 79.996 27.372 75.015 27.372 L 75.015 27.372 L 75.015 27.372 Q 71.914 27.372 69.565 26.228 L 69.565 26.228 L 69.565 26.228 Q 67.215 25.085 65.931 23.049 L 65.931 23.049 L 65.931 23.049 Q 64.647 21.013 64.647 18.475 L 64.647 18.475 L 64.647 18.475 Q 64.647 15.907 65.915 13.886 L 65.915 13.886 L 65.915 13.886 Q 67.184 11.866 69.392 10.738 L 69.392 10.738 L 69.392 10.738 Q 71.601 9.61 74.357 9.61 L 74.357 9.61 L 74.357 9.61 Q 76.957 9.61 79.103 10.644 L 79.103 10.644 L 79.103 10.644 Q 81.249 11.678 82.518 13.683 L 82.518 13.683 L 82.518 13.683 Q 83.786 15.687 83.786 18.475 L 83.786 18.475 L 83.786 18.475 L 83.786 18.475 L 83.786 18.475 L 83.786 18.475 Z  M 74.42 14.434 L 74.42 14.434 Q 73.324 14.434 72.603 15.03 L 72.603 15.03 L 72.603 15.03 Q 71.883 15.625 71.664 16.721 L 71.664 16.721 L 77.177 16.721 L 77.177 16.721 Q 76.957 15.656 76.237 15.045 L 76.237 15.045 L 76.237 15.045 Q 75.517 14.434 74.42 14.434 L 74.42 14.434 L 74.42 14.434 L 74.42 14.434 L 74.42 14.434 L 74.42 14.434 Z " fill-rule="evenodd" fill="rgb(109,76,65)"/><path d=" M 127.054 9.61 L 127.054 9.61 Q 129.31 9.61 131.205 10.691 L 131.205 10.691 L 131.205 10.691 Q 133.1 11.772 134.212 13.808 L 134.212 13.808 L 134.212 13.808 Q 135.324 15.844 135.324 18.507 L 135.324 18.507 L 135.324 18.507 Q 135.324 21.169 134.212 23.19 L 134.212 23.19 L 134.212 23.19 Q 133.1 25.21 131.205 26.291 L 131.205 26.291 L 131.205 26.291 Q 129.31 27.372 127.054 27.372 L 127.054 27.372 L 127.054 27.372 Q 124.204 27.372 122.7 25.899 L 122.7 25.899 L 122.7 33.135 L 115.621 33.135 L 115.621 11.49 C 115.621 10.625 116.322 9.924 117.187 9.924 L 120.789 9.924 C 121.654 9.924 122.355 10.555 122.355 11.333 L 122.355 11.333 L 122.355 11.333 Q 123.89 9.61 127.054 9.61 L 127.054 9.61 L 127.054 9.61 L 127.054 9.61 Z  M 125.363 21.858 L 125.363 21.858 Q 126.584 21.858 127.367 20.981 L 127.367 20.981 L 127.367 20.981 Q 128.151 20.104 128.151 18.507 L 128.151 18.507 L 128.151 18.507 Q 128.151 16.909 127.367 16.016 L 127.367 16.016 L 127.367 16.016 Q 126.584 15.124 125.363 15.124 L 125.363 15.124 L 125.363 15.124 Q 124.141 15.124 123.358 16.016 L 123.358 16.016 L 123.358 16.016 Q 122.575 16.909 122.575 18.507 L 122.575 18.507 L 122.575 18.507 Q 122.575 20.104 123.358 20.981 L 123.358 20.981 L 123.358 20.981 Q 124.141 21.858 125.363 21.858 L 125.363 21.858 L 125.363 21.858 L 125.363 21.858 Z " fill-rule="evenodd" fill="rgb(109,76,65)"/><path d=" M 149.487 9.924 L 153.434 9.924 C 154.298 9.924 155 10.625 155 11.49 L 155 27.058 L 148.265 27.058 L 148.265 25.429 L 148.265 25.429 Q 147.325 26.401 146.072 26.886 L 146.072 26.886 L 146.072 26.886 Q 144.819 27.372 143.41 27.372 L 143.41 27.372 L 143.41 27.372 Q 140.152 27.372 138.178 25.383 L 138.178 25.383 L 138.178 25.383 Q 136.205 23.393 136.205 19.384 L 136.205 19.384 L 136.205 11.49 C 136.205 10.625 136.907 9.924 137.771 9.924 L 141.718 9.924 C 142.583 9.924 143.284 10.625 143.284 11.49 L 143.284 18.162 L 143.284 18.162 Q 143.284 19.916 143.848 20.668 L 143.848 20.668 L 143.848 20.668 Q 144.412 21.42 145.508 21.42 L 145.508 21.42 L 145.508 21.42 Q 146.542 21.42 147.231 20.59 L 147.231 20.59 L 147.231 20.59 Q 147.921 19.76 147.921 17.974 L 147.921 17.974 L 147.921 11.49 C 147.921 10.625 148.622 9.924 149.487 9.924 Z " fill="rgb(109,76,65)"/></g></g></svg>